<svg xmlns="http://www.w3.org/2000/svg" width="22.329" height="22.654" viewBox="0 0 22.329 22.654"  stroke="none">
  <path id="Path_355" data-name="Path 355" d="M116.632-1146.723a9.584,9.584,0,0,0,.791-2.6,9.088,9.088,0,0,0-.516-4.608A10.682,10.682,0,0,1,118-1164.2a10.706,10.706,0,0,1,10.236-4.935,11.122,11.122,0,0,1,10.02,9.259,11.047,11.047,0,0,1-8.561,12.684,10.878,10.878,0,0,1-7.031-.735,1.266,1.266,0,0,0-1.528.238A4.679,4.679,0,0,1,116.632-1146.723ZM134.82-1158a1.622,1.622,0,0,0-1.6-1.626,1.626,1.626,0,0,0-1.63,1.6,1.632,1.632,0,0,0,1.6,1.628A1.625,1.625,0,0,0,134.82-1158Zm-5.954-.012a1.61,1.61,0,0,0-1.607-1.614,1.61,1.61,0,0,0-1.611,1.612,1.615,1.615,0,0,0,1.609,1.616A1.614,1.614,0,0,0,128.866-1158.017Zm-5.947.011a1.611,1.611,0,0,0-1.6-1.625,1.609,1.609,0,0,0-1.62,1.6,1.614,1.614,0,0,0,1.6,1.627A1.614,1.614,0,0,0,122.919-1158.006Z" transform="translate(-116.079 1169.18)"/>
</svg>
