<svg width="40" height="40" viewBox="0 0 40 40" fill="none" xmlns="http://www.w3.org/2000/svg">
<path d="M15 24.5263L20.5319 19.2632C20.5319 19.2632 20.7057 18.0881 20.5319 17.3684M28.1915 14.4211L28.617 16.5263L21.383 23.6842L30.4739 14.689C30.9126 14.2549 31.529 14.0507 32.1401 14.1371L32.2184 14.1482C33.2763 14.2977 34.0025 15.2902 33.8251 16.3436V16.3436C33.759 16.7362 33.5712 17.098 33.2882 17.378L32.0213 18.6316M23.9362 26.6316L32.0213 18.6316M32.0213 18.6316L33.182 18.823C33.9852 18.9555 34.5745 19.6498 34.5745 20.4639V20.4639C34.5745 20.908 34.3968 21.3337 34.0811 21.646L32.4468 23.2632M26.4894 29.1579L32.4468 23.2632M32.4468 23.2632L33.4935 23.6084C34.353 23.8919 34.865 24.773 34.6857 25.6601V25.6601C34.6133 26.0184 34.4328 26.3459 34.1684 26.5984L26.2278 34.1846C23.7996 36.5043 20.2323 37.1747 17.1277 35.8947V35.8947" stroke="#F93749" stroke-width="1.4" stroke-linecap="round"/>
<path d="M24.6842 15.5385L24.4977 14.6015C24.3557 13.8879 23.7985 13.3297 23.0851 13.1863C22.5045 13.0697 21.9036 13.2457 21.4777 13.6572L16.6842 18.2885C16.6842 18.2885 16.8562 17.1078 16.6842 16.3846C16.5852 15.9684 16.325 15.5047 16.0663 15.1177C15.7452 14.6374 15.0761 14.6159 14.6686 15.0253L10.7792 18.9334C8.4473 21.2765 7.57195 24.7012 8.49346 27.8758L8.68922 28.5502C9.46837 31.2344 11.6139 33.3032 14.3247 33.9842C16.8537 34.6195 19.5332 33.9597 21.478 32.2226L29.6299 24.9416C29.701 24.8781 29.7656 24.8077 29.8226 24.7313C30.4028 23.954 30.0532 22.8367 29.1335 22.5287L28.4737 22.3077L30.0898 20.6838C30.4031 20.369 30.5789 19.943 30.5789 19.4988C30.5789 18.6782 29.986 17.9776 29.1765 17.8421L28.0526 17.6538L29.3045 16.396C29.5857 16.1134 29.7719 15.7502 29.8371 15.3569C30.0131 14.2958 29.2823 13.2974 28.2176 13.1446L28.1812 13.1393C27.5704 13.0517 26.9541 13.2577 26.5188 13.6951L24.6842 15.5385Z" fill="#FEDFE2"/>
<path d="M10.9672 23.5263L16.5082 18.2632M19.918 25.6316L28.0164 17.6316M28.0164 17.6316L29.2856 16.3778C29.5689 16.0979 29.757 15.7361 29.8232 15.3434V15.3434C30.0009 14.2902 29.2747 13.2979 28.2171 13.1486L28.1343 13.1369C27.5228 13.0506 26.9061 13.2547 26.4668 13.6887L17.3607 22.6842L24.6066 15.5263L24.4231 14.6199C24.2761 13.8939 23.707 13.3275 22.9803 13.184V13.184C22.3963 13.0686 21.7926 13.2437 21.361 13.6537L16.5082 18.2632M28.0164 17.6316L29.1817 17.8234C29.9846 17.9556 30.5738 18.6497 30.5738 19.4635V19.4635C30.5738 19.9078 30.3959 20.3336 30.0797 20.6459L28.4426 22.2632M22.4754 28.1579L28.4426 22.2632M28.4426 22.2632L29.4932 22.6091C30.3527 22.8921 30.8648 23.7732 30.6852 24.6601V24.6601C30.6127 25.0184 30.4319 25.3458 30.1674 25.5981L22.3705 33.0348C19.8111 35.4758 16.1156 36.3093 12.7562 35.2031L12.5352 35.1303C9.68473 34.1917 7.47646 31.9139 6.62666 29.0357V29.0357C5.63223 25.6676 6.655 22.0277 9.25813 19.6704L14.4852 14.9372C14.8958 14.5654 15.5313 14.5991 15.8464 15.0546C16.1199 15.4499 16.4034 15.9351 16.5082 16.3684C16.6823 17.0881 16.5082 18.2632 16.5082 18.2632" stroke="#F93749" stroke-width="1.4" stroke-linecap="round"/>
<path d="M23 8L21 5" stroke="#F93749" stroke-width="1.4" stroke-linecap="round"/>
<path d="M31 8L33 5" stroke="#F93749" stroke-width="1.4" stroke-linecap="round"/>
<path d="M27 8V2" stroke="#F93749" stroke-width="1.4" stroke-linecap="round"/>
</svg>
