<svg xmlns="http://www.w3.org/2000/svg" width="17.258" height="22.654" viewBox="0 0 17.258 22.654">
  <g id="Group_181" data-name="Group 181" transform="translate(506.542 826.953)">
    <path id="Path_353" data-name="Path 353" d="M-504.417-826.953h8.23q0,2.488,0,4.977a1.555,1.555,0,0,0,1.659,1.66h5.243v.162q0,6.7,0,13.4a2.423,2.423,0,0,1-2.5,2.45q-6.116,0-12.232,0a2.774,2.774,0,0,1-.635-.067,2.421,2.421,0,0,1-1.881-2.438q0-6.315,0-12.63c0-1.681,0-3.362,0-5.043a2.3,2.3,0,0,1,1.056-2.027A5.985,5.985,0,0,1-504.417-826.953Zm6.372,11.5h.42q2.188,0,4.377,0a.673.673,0,0,0,.676-.4.663.663,0,0,0-.667-.924q-3.857,0-7.714,0h-1.923a.653.653,0,0,0-.638.392.662.662,0,0,0,.651.934Q-500.455-815.446-498.045-815.449Zm0,3.54h.332q2.233,0,4.465,0a.673.673,0,0,0,.676-.4.663.663,0,0,0-.665-.925q-3.791,0-7.582,0h-2.056a.653.653,0,0,0-.628.372.66.66,0,0,0,.639.954Q-500.455-811.906-498.046-811.91Zm-2.522-9.07c.456,0,.883,0,1.31,0a.663.663,0,0,0,.681-.666.667.667,0,0,0-.688-.659c-.147,0-.295,0-.442,0h-.86c0-.432,0-.829,0-1.227a.678.678,0,0,0-.673-.763.678.678,0,0,0-.654.76c0,.4,0,.807,0,1.231-.44,0-.858-.009-1.276.005a.935.935,0,0,0-.416.115.625.625,0,0,0-.275.71.652.652,0,0,0,.63.5c.44.007.879,0,1.336,0,0,.43,0,.834,0,1.238a.676.676,0,0,0,.661.753.675.675,0,0,0,.666-.748C-500.567-820.142-500.568-820.547-500.568-820.98Zm-.752,11.283c-.509,0-1.018,0-1.526,0a.672.672,0,0,0-.729.662.671.671,0,0,0,.728.664q1.537,0,3.075,0a.68.68,0,0,0,.743-.674.68.68,0,0,0-.742-.653C-500.288-809.7-500.8-809.7-501.32-809.7Z"/>
    <path id="Path_354" data-name="Path 354" d="M-303.679-817.674h-4.883c-.294,0-.352-.056-.352-.344q0-2.233,0-4.466v-.249c.219.168.407.291.569.44.53.49,1.052.99,1.576,1.486.862.815,1.727,1.628,2.583,2.449.2.191.367.414.549.622Z" transform="translate(-185.946 -3.97)"/>
  </g>
</svg>
