<svg width="40" height="40" viewBox="0 0 40 40" fill="none" xmlns="http://www.w3.org/2000/svg">
<path d="M27.9142 21.4142L20.3414 13.8414C20.2154 13.7154 20 13.8047 20 13.9828V17.5478C20 18.1674 20.1918 18.7717 20.5491 19.2779L25.817 26.7407C25.9361 26.9094 26 27.1109 26 27.3174V33.5C26 34.0523 26.4477 34.5 27 34.5H37C37.5523 34.5 38 34.0523 38 33.5V28C38 24.6863 35.3137 22 32 22H29.3284C28.798 22 28.2893 21.7893 27.9142 21.4142Z" fill="#FEDFE2"/>
<path d="M12.0858 21.4142L19.6586 13.8414C19.7846 13.7154 20 13.8047 20 13.9828V17.5478C20 18.1674 19.8082 18.7717 19.4509 19.2779L14.183 26.7407C14.0639 26.9094 14 27.1109 14 27.3174V33.5C14 34.0523 13.5523 34.5 13 34.5H3C2.44772 34.5 2 34.0523 2 33.5V28C2 24.6863 4.68629 22 8 22H10.6716C11.202 22 11.7107 21.7893 12.0858 21.4142Z" fill="#FEDFE2"/>
<ellipse cx="31.5" cy="19" rx="2.5" ry="3" fill="#FEDFE2"/>
<ellipse cx="8.5" cy="18" rx="2.5" ry="3" fill="#FEDFE2"/>
<path d="M27.9142 21.4142L20.3414 13.8414C20.2154 13.7154 20 13.8047 20 13.9828V17.5478C20 18.1674 20.1918 18.7717 20.5491 19.2779L25.817 26.7407C25.9361 26.9094 26 27.1109 26 27.3174V36C26 36.5523 26.4477 37 27 37H37C37.5523 37 38 36.5523 38 36V28C38 24.6863 35.3137 22 32 22H29.3284C28.798 22 28.2893 21.7893 27.9142 21.4142Z" stroke="#F93749" stroke-width="1.4"/>
<circle cx="30.5" cy="18.5" r="3.3" stroke="#F93749" stroke-width="1.4"/>
<path d="M12.0858 21.4142L19.6586 13.8414C19.7846 13.7154 20 13.8047 20 13.9828V17.5478C20 18.1674 19.8082 18.7717 19.4509 19.2779L14.183 26.7407C14.0639 26.9094 14 27.1109 14 27.3174V36C14 36.5523 13.5523 37 13 37H3C2.44772 37 2 36.5523 2 36V28C2 24.6863 4.68629 22 8 22H10.6716C11.202 22 11.7107 21.7893 12.0858 21.4142Z" stroke="#F93749" stroke-width="1.4"/>
<path d="M5 28V35" stroke="#F93749" stroke-width="1.5" stroke-linecap="round"/>
<circle cx="4" cy="4" r="3.3" transform="matrix(-1 0 0 1 13.5 14.5)" stroke="#F93749" stroke-width="1.4"/>
<path d="M15.5 9.5L12.5 6" stroke="#F93749" stroke-width="1.5" stroke-linecap="round"/>
<path d="M24.5 9.5L27.5 6" stroke="#F93749" stroke-width="1.5" stroke-linecap="round"/>
<path d="M20 8.5V2" stroke="#F93749" stroke-width="1.5" stroke-linecap="round"/>
<path d="M35 28V35" stroke="#F93749" stroke-width="1.5" stroke-linecap="round"/>
</svg>
