<svg xmlns="http://www.w3.org/2000/svg" width="29.132" height="22.654" viewBox="0 0 29.132 22.654">
  <path id="Icon_awesome-home" data-name="Icon awesome-home" d="M14.179,8.131,4.855,15.81V24.1a.809.809,0,0,0,.809.809l5.667-.015a.809.809,0,0,0,.805-.809v-4.84a.809.809,0,0,1,.809-.809h3.237a.809.809,0,0,1,.809.809V24.08a.809.809,0,0,0,.809.812l5.665.016a.809.809,0,0,0,.809-.809V15.8L14.953,8.131A.616.616,0,0,0,14.179,8.131Zm14.728,5.22L24.679,9.865v-7a.607.607,0,0,0-.607-.607H21.24a.607.607,0,0,0-.607.607V6.533L16.106,2.807a2.428,2.428,0,0,0-3.085,0L.219,13.35a.607.607,0,0,0-.081.855l1.29,1.568a.607.607,0,0,0,.855.082l11.9-9.8a.616.616,0,0,1,.774,0l11.9,9.8a.607.607,0,0,0,.855-.081l1.29-1.568a.607.607,0,0,0-.086-.856Z" transform="translate(0.001 -2.254)"/>
</svg>
