<svg width="32" height="32" viewBox="0 0 32 32" fill="none" xmlns="http://www.w3.org/2000/svg">
<path d="M28.2596 8.00084H27.6052C27.4109 7.17284 27.0095 6.4214 26.4464 5.83192C25.8834 5.24244 25.1813 4.83855 24.4201 4.66614C23.6588 4.49373 22.8689 4.55972 22.14 4.8566C21.4112 5.15349 20.7726 5.66937 20.2969 6.34563C19.8212 7.02188 19.5274 7.83139 19.449 8.68218C19.3705 9.53297 19.5105 10.3909 19.853 11.1585C20.1956 11.9261 20.727 12.5727 21.3868 13.0246C22.0466 13.4765 22.8083 13.7158 23.5856 13.7151H28.2596C28.9483 13.7151 29.6088 13.4141 30.0958 12.8783C30.5827 12.3425 30.8563 11.6157 30.8563 10.858C30.8563 10.1002 30.5827 9.37349 30.0958 8.83767C29.6088 8.30186 28.9483 8.00084 28.2596 8.00084Z" stroke="#B5B5B5" stroke-width="2" stroke-linecap="round" stroke-linejoin="round"/>
<path d="M21.714 21.4975C21.5338 23.447 20.8022 25.3049 19.6047 26.8538C18.4071 28.4026 16.7933 29.5784 14.9519 30.2435C13.1105 30.9087 11.1178 31.0356 9.2069 30.6095C7.29601 30.1834 5.54599 29.222 4.1616 27.8376C2.77721 26.4532 1.81573 24.7032 1.38964 22.7923C0.963559 20.8814 1.0905 18.8886 1.75562 17.0473C2.42074 15.2059 3.59652 13.592 5.14539 12.3945C6.69425 11.197 8.55214 10.4653 10.5016 10.2852C9.36027 11.8293 8.81103 13.7318 8.95383 15.6467C9.09663 17.5616 9.92198 19.3616 11.2798 20.7194C12.6375 22.0772 14.4376 22.9025 16.3524 23.0453C18.2673 23.1881 20.1699 22.6389 21.714 21.4975Z" stroke="#B5B5B5" stroke-width="2" stroke-linecap="round" stroke-linejoin="round"/>
</svg>
