<svg width="36" height="36" viewBox="0 0 36 36" fill="none" xmlns="http://www.w3.org/2000/svg">
<g clip-path="url(#clip0_822_107619)">
<path fill-rule="evenodd" clip-rule="evenodd" d="M12.2829 21.7633C11.9324 21.0662 11.3098 19.8277 13.0094 18.4187C13.4714 18.0357 15.1031 16.9817 17.1038 15.6894C19.5963 14.0795 22.6613 12.0997 24.7503 10.5868C25.1119 10.3249 25.3533 9.93395 25.4369 9.49521L27.0824 0.850691C27.2029 0.217511 26.4915 -0.24189 25.9642 0.128651L8.77921 12.2059C7.33515 13.1875 4.87182 15.4842 6.58187 18.5691C7.95349 21.0435 12.43 22.0834 12.43 22.0834C12.3996 21.9954 12.3456 21.888 12.2829 21.7633ZM23.7175 14.2294C24.068 14.9266 24.6906 16.165 22.9911 17.574C22.5291 17.957 20.8974 19.011 18.8967 20.3032C16.4043 21.9131 13.3393 23.8928 11.2503 25.4056C10.8887 25.6675 10.6473 26.0584 10.5638 26.4972L8.91845 35.1416C8.79794 35.7748 9.50938 36.2342 10.0366 35.8637L27.2215 23.7869C28.6655 22.8053 31.1288 20.5087 29.4187 17.4237C28.047 14.9493 23.5704 13.9094 23.5704 13.9094C23.6008 13.9973 23.6548 14.1047 23.7175 14.2294Z" fill="url(#paint0_linear_822_107619)"/>
</g>
<defs>
<linearGradient id="paint0_linear_822_107619" x1="18.0003" y1="37.9087" x2="32.456" y2="2.54123" gradientUnits="userSpaceOnUse">
<stop stop-color="#4756E9"/>
<stop offset="0.865173" stop-color="#F93749"/>
</linearGradient>
<clipPath id="clip0_822_107619">
<rect width="36" height="36" fill="white"/>
</clipPath>
</defs>
</svg>
