<svg xmlns="http://www.w3.org/2000/svg" width="83.454" height="100.618" viewBox="0 0 83.454 100.618">
  <g id="Group_10" data-name="Group 10" transform="translate(0)">
    <path id="Path_1" data-name="Path 1" d="M-390.3,173.963s-45.682-2.868-46.589,42.382a32.464,32.464,0,0,0,4.379,17.3c3.836,6.435,11.039,13.282,24.5,14.936,0,0,23.141,2.6,26.211,16.294a45.212,45.212,0,0,1-12.531,2.871,49.148,49.148,0,0,1-53.222-42.576,44.3,44.3,0,0,1,2.763-21.726,50.434,50.434,0,0,1,21.731-25.381C-414.5,173.08-402.53,168.973-390.3,173.963Z" transform="translate(447.898 -167.351)" fill="#fff"/>
    <circle id="Ellipse_1" data-name="Ellipse 1" cx="7.792" cy="7.792" r="7.792" transform="translate(56.888 0.001)" fill="#fff"/>
    <path id="Path_2" data-name="Path 2" d="M-371.07,168.173s-4.13,21.54-17.6,27.944c-.991.471-1.989.924-2.937,1.474-3.989,2.313-13.837,8.779-19.846,19.226,0,0,16.766-8.135,20.107-2.033a3.944,3.944,0,0,1,.068,3.426c-1.512,3.565-7.366,13.5-28.2,24.347C-419.479,242.557-375.439,247.515-371.07,168.173Z" transform="translate(454.524 -168.173)" fill="#fff"/>
  </g>
</svg>
