<svg width="40" height="40" viewBox="0 0 40 40" fill="none" xmlns="http://www.w3.org/2000/svg">
<path opacity="0.16" d="M36 19.8621C36 27.931 27.9411 36 18 36C8.05887 36 0 28.5517 0 19.8621C0 8.89255 8.05887 0 18 0C27.9411 0 36 8.89255 36 19.8621Z" fill="#F93749"/>
<path d="M39.25 20C39.25 30.6315 30.6315 39.25 20 39.25C9.36852 39.25 0.75 30.6315 0.75 20C0.75 9.36852 9.36852 0.75 20 0.75C30.6315 0.75 39.25 9.36852 39.25 20Z" stroke="#F93749" stroke-width="1.5"/>
<path d="M31 13.4099C30.2134 16.6192 25.1998 17.2426 24 13" stroke="#F93749" stroke-width="1.5" stroke-linecap="round"/>
<path d="M9 13.4099C9.78664 16.6192 14.8002 17.2426 16 13" stroke="#F93749" stroke-width="1.5" stroke-linecap="round"/>
<path d="M28 29C28 29 26.7068 22 19.6522 22C12.5975 22 12 29 12 29" stroke="#F93749" stroke-width="1.5" stroke-linecap="round"/>
</svg>
