<svg width="14" height="14" viewBox="0 0 14 14" fill="none" xmlns="http://www.w3.org/2000/svg">
<path fill-rule="evenodd" clip-rule="evenodd" d="M2.89888 2.16699C2.47625 2.16699 2.16809 2.47632 2.16809 2.89427L2.16797 11.0759C2.16797 11.4938 2.47613 11.8031 2.89875 11.8031H10.6162L11.1037 11.803C11.5262 11.803 11.8344 11.4939 11.8346 11.0758C11.8346 11.0758 11.8346 11.0759 11.8346 11.0758V2.89427C11.8346 2.47632 11.5265 2.16699 11.1038 2.16699H2.89888ZM11.5929 12.7362C12.3188 12.5315 12.8343 11.8781 12.8346 11.076V2.89427C12.8346 1.92135 12.076 1.16699 11.1038 1.16699H2.89888C1.92666 1.16699 1.1681 1.92134 1.16809 2.89426C1.16809 2.89426 1.16809 2.89426 1.16809 2.89426L1.16797 11.0758C1.16797 12.0488 1.92654 12.8031 2.89875 12.8031H11.5912L11.5929 12.7362Z" fill="black"/>
<path fill-rule="evenodd" clip-rule="evenodd" d="M0.918095 2.89426C0.918099 1.78254 1.78933 0.916992 2.89888 0.916992H11.1038C12.2134 0.916992 13.0846 1.78255 13.0846 2.89427V11.076C13.0843 11.9241 12.5765 12.6319 11.8383 12.9176L11.8349 13.0531H2.89875C1.7892 13.0531 0.917969 12.1876 0.917969 11.0758L0.918095 2.89426ZM1.41809 2.89426L1.41797 11.0758C1.41797 11.91 2.06387 12.5531 2.89875 12.5531H11.3474L11.3476 12.5456L11.525 12.4956C12.1438 12.3211 12.5843 11.7655 12.5846 11.076C12.5846 11.076 12.5846 11.0761 12.5846 11.076V2.89427C12.5846 2.06015 11.9387 1.41699 11.1038 1.41699H2.89888C2.064 1.41699 1.4181 2.06015 1.41809 2.89426ZM2.89888 2.41699C2.61379 2.41699 2.41809 2.61492 2.41809 2.89427L2.41797 11.0759C2.41797 11.3552 2.61367 11.5531 2.89875 11.5531L11.1036 11.553C11.3886 11.553 11.5845 11.3552 11.5846 11.0757V2.89427C11.5846 2.61492 11.3889 2.41699 11.1038 2.41699H2.89888ZM1.91809 2.89427C1.9181 2.33772 2.33871 1.91699 2.89888 1.91699H11.1038C11.664 1.91699 12.0846 2.33772 12.0846 2.89427V11.0758C12.0843 11.6324 11.6638 12.053 11.1038 12.053C11.1037 12.053 11.1038 12.053 11.1038 12.053L2.89875 12.0531C2.33859 12.0531 1.91797 11.6324 1.91797 11.0758L1.91809 2.89427C1.91809 2.89427 1.91809 2.89426 1.91809 2.89427ZM11.8338 11.0758L11.8076 11.0758L11.8338 11.0758Z" fill="black"/>
<path fill-rule="evenodd" clip-rule="evenodd" d="M3.79297 1.41699C3.6549 1.41699 3.54297 1.52892 3.54297 1.66699V5.47142C3.54297 6.37864 4.29105 7.1214 5.19551 7.1214H8.80569C9.71012 7.1214 10.4582 6.37867 10.4582 5.47142V1.66699C10.4582 1.52892 10.3463 1.41699 10.2082 1.41699H9.20823C9.07016 1.41699 8.95823 1.52892 8.95823 1.66699V5.47142C8.95823 5.54637 8.88557 5.6214 8.80569 5.6214H5.19551C5.11563 5.6214 5.04297 5.54637 5.04297 5.47142V1.66699C5.04297 1.52892 4.93104 1.41699 4.79297 1.41699H3.79297Z" fill="black"/>
<path fill-rule="evenodd" clip-rule="evenodd" d="M8.39453 8.93555C7.98032 8.93555 7.64453 9.27133 7.64453 9.68555C7.64453 10.0998 7.98032 10.4355 8.39453 10.4355H9.70728C10.1215 10.4355 10.4573 10.0998 10.4573 9.68555C10.4573 9.27133 10.1215 8.93555 9.70728 8.93555H8.39453Z" fill="black"/>
</svg>
