<svg xmlns="http://www.w3.org/2000/svg" width="32.363" height="22.654" viewBox="0 0 32.363 22.654">
  <path id="Icon_awesome-user-friends" data-name="Icon awesome-user-friends" d="M9.709,13.577A5.664,5.664,0,1,0,4.045,7.914,5.661,5.661,0,0,0,9.709,13.577ZM13.593,15.2h-.42a7.819,7.819,0,0,1-6.928,0h-.42A5.827,5.827,0,0,0,0,21.021v1.456A2.428,2.428,0,0,0,2.427,24.9H16.991a2.428,2.428,0,0,0,2.427-2.427V21.021A5.827,5.827,0,0,0,13.593,15.2Zm10.68-1.618a4.854,4.854,0,1,0-4.854-4.854A4.856,4.856,0,0,0,24.272,13.577ZM26.7,15.2h-.192a6.377,6.377,0,0,1-4.47,0h-.192a5.616,5.616,0,0,0-2.817.779,7.4,7.4,0,0,1,2.008,5.047v1.942c0,.111-.025.217-.03.324h8.93a2.428,2.428,0,0,0,2.427-2.427A5.661,5.661,0,0,0,26.7,15.2Z" transform="translate(0 -2.25)"/>
</svg>
